<svg width="960" height="600" viewBox="0 0 960 600" fill="none" xmlns="http://www.w3.org/2000/svg">
  <rect width="960" height="600" rx="36" fill="#F6F8FF"/>
  <rect x="96" y="82" width="768" height="436" rx="28" fill="white" stroke="#E3E8F5" stroke-width="2"/>
  <rect x="138" y="128" width="260" height="24" rx="12" fill="#10152B" opacity=".8"/>
  <rect x="138" y="184" width="300" height="220" rx="26" fill="#EEF3FF"/>
  <rect x="486" y="184" width="288" height="48" rx="18" fill="#EEF3FF"/>
  <rect x="486" y="262" width="288" height="48" rx="18" fill="#EEF3FF"/>
  <rect x="486" y="340" width="288" height="48" rx="18" fill="#EEF3FF"/>
  <path d="M176 350C220 284 256 332 292 266C326 204 370 266 400 222" stroke="url(#g)" stroke-width="12" stroke-linecap="round"/>
  <circle cx="680" cy="430" r="54" fill="url(#g)" opacity=".9"/>
  <path d="M658 431L676 449L708 407" stroke="white" stroke-width="12" stroke-linecap="round" stroke-linejoin="round"/>
  <defs>
    <linearGradient id="g" x1="176" y1="222" x2="684" y2="468" gradientUnits="userSpaceOnUse">
      <stop stop-color="#164EE8"/>
      <stop offset=".52" stop-color="#3045F4"/>
      <stop offset="1" stop-color="#6840FF"/>
    </linearGradient>
  </defs>
</svg>
