<svg width="760" height="680" viewBox="0 0 760 680" fill="none" xmlns="http://www.w3.org/2000/svg">
  <rect width="760" height="680" rx="32" fill="#EEF3FF"/>
  <circle cx="620" cy="112" r="150" fill="#6840FF" opacity=".12"/>
  <circle cx="128" cy="548" r="160" fill="#1E4AE9" opacity=".12"/>
  <rect x="104" y="110" width="552" height="378" rx="30" fill="white" stroke="#DCE5FA" stroke-width="2"/>
  <rect x="146" y="154" width="468" height="62" rx="20" fill="#F6F8FF"/>
  <rect x="174" y="178" width="144" height="14" rx="7" fill="#10152B" opacity=".8"/>
  <rect x="472" y="170" width="106" height="30" rx="15" fill="url(#g)"/>
  <rect x="150" y="254" width="142" height="118" rx="24" fill="#EEF3FF"/>
  <rect x="320" y="254" width="142" height="118" rx="24" fill="#EEF3FF"/>
  <rect x="490" y="254" width="82" height="118" rx="24" fill="#EEF3FF"/>
  <path d="M168 424C226 356 267 452 329 384C388 320 442 444 510 366C540 332 570 320 612 336" stroke="url(#g)" stroke-width="12" stroke-linecap="round"/>
  <rect x="120" y="510" width="172" height="86" rx="24" fill="white" stroke="#DCE5FA"/>
  <rect x="468" y="500" width="174" height="96" rx="24" fill="white" stroke="#DCE5FA"/>
  <circle cx="168" cy="552" r="22" fill="#1E4AE9" opacity=".14"/>
  <circle cx="518" cy="548" r="22" fill="#6840FF" opacity=".14"/>
  <defs>
    <linearGradient id="g" x1="146" y1="170" x2="612" y2="424" gradientUnits="userSpaceOnUse">
      <stop stop-color="#164EE8"/>
      <stop offset=".5" stop-color="#3045F4"/>
      <stop offset="1" stop-color="#6840FF"/>
    </linearGradient>
  </defs>
</svg>
